<?xml version="1.0" encoding="utf-8"?>
<!-- Generator: Adobe Illustrator 24.2.1, SVG Export Plug-In . SVG Version: 6.00 Build 0)  -->
<svg version="1.1" id="Layer_1" xmlns="http://www.w3.org/2000/svg" xmlns:xlink="http://www.w3.org/1999/xlink" x="0px" y="0px"
	 viewBox="0 0 512 512" style="enable-background:new 0 0 512 512;" xml:space="preserve">
<style type="text/css">
	.st0{fill:#FFFFFF;}
</style>
<g>
	
		<ellipse transform="matrix(0.9732 -0.2298 0.2298 0.9732 -51.9846 65.6669)" class="st0" cx="256" cy="256.1" rx="48.9" ry="48.9"/>
	<path class="st0" d="M256,0C114.6,0,0,114.6,0,256s114.6,256,256,256s256-114.6,256-256S397.4,0,256,0z M401.8,316.5
		c-0.7,15.6-3.2,26.3-6.8,35.6c-3.7,9.6-8.8,17.8-16.9,26c-8.1,8.1-16.3,13.2-26,16.9c-9.3,3.6-20,6.1-35.6,6.8
		c-15.6,0.8-20.6,0.9-60.5,0.9s-44.8-0.2-60.5-0.9c-15.6-0.7-26.3-3.2-35.6-6.8c-9.6-3.7-17.8-8.8-26-16.9s-13.2-16.3-16.9-26
		c-3.6-9.3-6.1-20-6.8-35.6c-0.8-15.6-0.9-20.6-0.9-60.5s0.2-44.8,0.9-60.5c0.7-15.6,3.2-26.3,6.8-35.6c3.7-9.6,8.8-17.8,16.9-26
		s16.3-13.2,26-16.9c9.3-3.6,20-6.1,35.6-6.8c15.6-0.8,20.6-0.9,60.5-0.9s44.8,0.2,60.5,0.9c15.6,0.7,26.3,3.2,35.6,6.8
		c9.6,3.7,17.8,8.8,26,16.9s13.2,16.3,16.9,26c3.6,9.3,6.1,20,6.8,35.6c0.8,15.6,0.9,20.6,0.9,60.5
		C402.7,295.8,402.5,300.8,401.8,316.5z"/>
	<path class="st0" d="M370.3,169.5c-2.6-6.9-5.8-11.8-10.9-16.9c-5.2-5.1-10-8.3-16.9-10.9c-5.1-2-12.9-4.4-27.2-5.1
		c-15.4-0.7-20.1-0.8-59.3-0.8s-43.8,0.1-59.3,0.8c-14.3,0.6-22,3-27.2,5.1c-6.9,2.6-11.8,5.8-16.9,10.9c-5.1,5.2-8.3,10-10.9,16.9
		c-2,5.1-4.4,12.9-5.1,27.2c-0.7,15.4-0.8,20.1-0.8,59.3c0,39.1,0.1,43.8,0.8,59.3c0.6,14.3,3,22,5.1,27.2
		c2.6,6.9,5.8,11.8,10.9,16.9c5.2,5.1,10,8.3,16.9,10.9c5.1,2,12.9,4.4,27.2,5.1c15.4,0.7,20.1,0.8,59.3,0.8
		c39.1,0,43.8-0.1,59.3-0.8c14.3-0.6,22-3,27.2-5.1c6.9-2.6,11.8-5.8,16.9-10.9c5.1-5.2,8.3-10,10.9-16.9c2-5.1,4.4-12.9,5.1-27.2
		c0.7-15.4,0.8-20.1,0.8-59.3c0-39.1-0.1-43.8-0.8-59.3C374.8,182.4,372.4,174.7,370.3,169.5z M256,331.4
		c-41.6,0-75.3-33.7-75.3-75.3s33.7-75.3,75.3-75.3s75.3,33.7,75.3,75.3S297.6,331.4,256,331.4z M334.3,195.3
		c-9.7,0-17.6-7.9-17.6-17.6s7.9-17.6,17.6-17.6c9.7,0,17.6,7.9,17.6,17.6C352,187.5,344.1,195.3,334.3,195.3z"/>
</g>
</svg>
