<svg xmlns="http://www.w3.org/2000/svg" width="43.986" height="43.986" viewBox="0 0 43.986 43.986"><circle cx="4.201" cy="4.201" r="4.201" transform="translate(16.94 18.877) rotate(-13.286)" fill="#003153"/><path d="M21.993,0A21.993,21.993,0,1,0,43.986,21.993,21.992,21.992,0,0,0,21.993,0ZM34.519,27.191a9.273,9.273,0,0,1-.584,3.058,6.252,6.252,0,0,1-1.452,2.234,6.107,6.107,0,0,1-2.234,1.452,9.272,9.272,0,0,1-3.058.584c-1.34.069-1.77.077-5.2.077s-3.849-.017-5.2-.077a9.273,9.273,0,0,1-3.058-.584A6.252,6.252,0,0,1,11.5,32.483a6,6,0,0,1-1.452-2.234,9.273,9.273,0,0,1-.584-3.058c-.069-1.34-.077-1.77-.077-5.2s.017-3.849.077-5.2a9.273,9.273,0,0,1,.584-3.058A6.252,6.252,0,0,1,11.5,11.5a6,6,0,0,1,2.234-1.452A9.273,9.273,0,0,1,16.8,9.467c1.34-.069,1.77-.077,5.2-.077s3.849.017,5.2.077a9.273,9.273,0,0,1,3.058.584A6.252,6.252,0,0,1,32.483,11.5a6,6,0,0,1,1.452,2.234,9.272,9.272,0,0,1,.584,3.058c.069,1.34.077,1.77.077,5.2S34.579,25.842,34.519,27.191Z" fill="#003153"/><path d="M155.946,138.7a3.814,3.814,0,0,0-.936-1.452,3.88,3.88,0,0,0-1.452-.936,7.01,7.01,0,0,0-2.337-.438c-1.323-.06-1.727-.069-5.095-.069s-3.763.009-5.095.069a6.632,6.632,0,0,0-2.337.438,3.814,3.814,0,0,0-1.452.936,3.88,3.88,0,0,0-.936,1.452,7.01,7.01,0,0,0-.438,2.337c-.06,1.323-.069,1.727-.069,5.095s.009,3.763.069,5.095a6.632,6.632,0,0,0,.438,2.337,3.814,3.814,0,0,0,.936,1.452,3.881,3.881,0,0,0,1.452.936,7.01,7.01,0,0,0,2.337.438c1.323.06,1.727.069,5.095.069s3.763-.009,5.095-.069a6.632,6.632,0,0,0,2.337-.438,3.814,3.814,0,0,0,1.452-.936,3.88,3.88,0,0,0,.936-1.452,7.01,7.01,0,0,0,.438-2.337c.06-1.323.069-1.727.069-5.095s-.009-3.763-.069-5.095A6.632,6.632,0,0,0,155.946,138.7Zm-9.82,13.909a6.469,6.469,0,1,1,6.469-6.469A6.468,6.468,0,0,1,146.126,152.6Zm6.727-11.693a1.512,1.512,0,1,1,1.512-1.512A1.5,1.5,0,0,1,152.853,140.912Z" transform="translate(-124.133 -124.133)" fill="#003153"/></svg>