<?xml version="1.0" encoding="utf-8"?>
<!-- Generator: Adobe Illustrator 24.2.1, SVG Export Plug-In . SVG Version: 6.00 Build 0)  -->
<svg version="1.1" id="Layer_1" xmlns="http://www.w3.org/2000/svg" xmlns:xlink="http://www.w3.org/1999/xlink" x="0px" y="0px"
	 viewBox="0 0 512 512" style="enable-background:new 0 0 512 512;" xml:space="preserve">
<style type="text/css">
	.st0{fill:#FFFFFF;}
</style>
<path class="st0" d="M256,0C114.6,0,0,114.6,0,256s114.6,256,256,256s256-114.6,256-256S397.4,0,256,0z M385.6,232.4
	c-27.2,0-53.6-8.8-74-23.8l-0.2,101.5c0,51.1-41.5,92.4-92.5,92.4S126.5,361,126.5,310c0-51.1,41.5-92.4,92.5-92.4
	c4.1,0,8.2,0.3,12.2,0.8v49.8c-23.1-6.8-47.4,6.4-54.2,29.5c-6.8,23.1,6.4,47.4,29.5,54.2c23.1,6.8,47.4-6.4,54.2-29.5
	c1.2-4,1.8-8.2,1.8-12.4V109.3h51.3c0,39.6,32.1,71.8,71.8,71.8c0,0,0,0,0,0L385.6,232.4z"/>
</svg>
