<svg xmlns="http://www.w3.org/2000/svg" width="43.986" height="43.986" viewBox="0 0 43.986 43.986"><path d="M21.993,0A21.993,21.993,0,1,1,0,21.993,22,22,0,0,1,21.993,0ZM17.968,33.594A14.987,14.987,0,0,0,33.055,18.507c0-.23,0-.46-.014-.683a10.946,10.946,0,0,0,2.652-2.746,10.741,10.741,0,0,1-3.047.834,5.3,5.3,0,0,0,2.329-2.94A10.818,10.818,0,0,1,31.61,14.26a5.3,5.3,0,0,0-9.171,3.622,4.75,4.75,0,0,0,.144,1.207,15.041,15.041,0,0,1-10.932-5.541A5.309,5.309,0,0,0,13.3,20.62a5.236,5.236,0,0,1-2.4-.661v.065a5.312,5.312,0,0,0,4.255,5.2,5.173,5.173,0,0,1-2.393.086A5.3,5.3,0,0,0,17.717,29a10.67,10.67,0,0,1-6.584,2.264,9.2,9.2,0,0,1-1.265-.079A14.646,14.646,0,0,0,17.968,33.594Z" fill="#003153" fill-rule="evenodd"/></svg>