<?xml version="1.0" encoding="utf-8"?>
<!-- Generator: Adobe Illustrator 24.2.1, SVG Export Plug-In . SVG Version: 6.00 Build 0)  -->
<svg version="1.1" id="Layer_1" xmlns:serif="http://www.serif.com/"
	 xmlns="http://www.w3.org/2000/svg" xmlns:xlink="http://www.w3.org/1999/xlink" x="0px" y="0px" viewBox="0 0 612 612"
	 style="enable-background:new 0 0 612 612;" xml:space="preserve">
<style type="text/css">
	.st0{fill-rule:evenodd;clip-rule:evenodd;fill:#FFFFFF;}
</style>
<path id="Dark_Blue" class="st0" d="M306,0c168.9,0,306,137.1,306,306S474.9,612,306,612S0,474.9,0,306S137.1,0,306,0z M250,467.4
	c135.7,0,209.9-112.5,209.9-209.9c0-3.2,0-6.4-0.2-9.5c14.4-10.4,26.9-23.4,36.9-38.2c-13.2,5.8-27.4,9.8-42.4,11.6
	c15.3-9.2,26.9-23.6,32.4-40.9c-14.2,8.4-30,14.5-46.8,17.9c-13.5-14.4-32.6-23.3-53.9-23.3c-40.7,0-73.7,33-73.7,73.7
	c0,5.8,0.6,11.5,2,16.8c-61.4-3.1-115.7-32.4-152.1-77.1c-6.3,10.9-9.9,23.6-9.9,37c0,25.6,13,48.2,32.9,61.4
	c-12.1-0.3-23.4-3.7-33.4-9.2v0.9c0,35.8,25.4,65.5,59.2,72.4c-6.1,1.7-12.7,2.6-19.4,2.6c-4.7,0-9.3-0.5-13.9-1.4
	c9.3,29.4,36.6,50.6,68.9,51.3c-25.2,19.7-57.1,31.5-91.6,31.5c-6,0-11.8-0.3-17.6-1.1C169.5,455.2,208.4,467.4,250,467.4z"/>
</svg>
