<svg xmlns="http://www.w3.org/2000/svg" width="89.302" height="121.931" viewBox="0 0 89.302 121.931"><g transform="translate(-610.956 -98.406)"><path d="M2937.6,4878.2c8-41.869,28.273-44.885,56.949-63.056,25.308-16.037,27.712-44.894,30.005-58.874,2.5,24.293-1.232,47.91-13.331,62.413s-25.991,15.177-48.964,29.591c22.152-8.85,33.448-9.091,42.467-17.105s13.644-16.064,19.471-33.5c.646-.059.57,0,.57,0s-3.157,21.234-7.386,29.74c-1.844,3.709-7.274,15.025-19.667,20.861-10.827,4.488-28.365,7.313-31.737,9.124,18.844-1.491,28.142-2.319,36.932-7.044s19.22-22.941,19.22-22.941-4.043,13.984-11.783,25.23c-8.278,12.267-23.27,13.089-35.435,13.178C2960.3,4865.788,2949.3,4866.694,2937.6,4878.2Z" transform="translate(-2326.642 -4657.869)" fill="#fff"/><path d="M2937.6,4873.606c8.151-40.291,28.792-43.192,58-60.678,25.772-15.432,28.221-43.2,30.557-56.653,2.543,23.376-1.255,46.1-13.576,60.059s-26.469,14.6-49.864,28.475c22.559-8.516,34.063-8.749,43.248-16.46s13.895-15.458,19.829-32.232c.658-.056.58,0,.58,0s-3.215,20.433-7.521,28.619c-1.878,3.569-7.408,14.458-20.028,20.074-11.026,4.319-28.886,7.038-32.321,8.781,19.19-1.435,28.659-2.232,37.611-6.779s19.573-22.076,19.573-22.076-4.117,13.457-12,24.279c-8.43,11.8-23.7,12.595-36.087,12.682C2960.719,4861.658,2949.516,4862.531,2937.6,4873.606Z" transform="translate(-2326.642 -4653.27)" fill="#cda837"/></g></svg>